<svg width="30" height="50" viewBox="0 0 30 50" fill="none" xmlns="http://www.w3.org/2000/svg">
<g clip-path="url(#clip0)">
<path d="M0.604465 38.3136L10.3513 49.2514C11.2405 50.2488 12.7584 50.2503 13.6488 49.2514L23.3965 38.3136C24.7283 36.8194 23.713 34.375 21.7477 34.375H15.7501V7.8125H23.6228C23.7705 7.81251 23.9168 7.78221 24.0533 7.72331C24.1898 7.66441 24.3138 7.57808 24.4183 7.46924L29.6683 2.00049C30.377 1.2623 29.8751 0 28.8728 0H10.5001C9.2574 0 8.25006 1.04932 8.25006 2.34375V34.375H2.25325C0.295935 34.375 -0.732784 36.8134 0.604465 38.3136Z" fill="#F0B110"/>
</g>
<defs>
<clipPath id="clip0">
<rect width="30" height="50" fill="white" transform="matrix(-1 0 0 1 30 0)"/>
</clipPath>
</defs>
</svg>
