<svg width="29" height="24" viewBox="0 0 29 24" fill="none" xmlns="http://www.w3.org/2000/svg">
<path d="M28.3391 1.6275C28.5383 0.69 28.3391 0 27.3808 0H24.2099C23.4023 0 23.0309 0.5925 22.8317 1.2525C22.8317 1.2525 21.2166 6.735 18.934 10.29C18.1964 11.3175 17.8573 11.6475 17.4535 11.6475C17.2543 11.6475 16.9475 11.3175 16.9475 10.38V1.6275C16.9475 0.5025 16.7213 0 16.0538 0H11.0686C10.5625 0 10.2611 0.525 10.2611 1.0125C10.2611 2.0775 11.4024 2.325 11.5208 5.325V11.835C11.5208 13.26 11.3378 13.5225 10.934 13.5225C9.8573 13.5225 7.24089 8.0175 5.69042 1.7175C5.37818 0.495 5.07131 0 4.2584 0H1.08748C0.183041 0 0 0.5925 0 1.2525C0 2.4225 1.07671 8.235 5.0121 15.915C7.63389 21.1575 11.327 24 14.6864 24C16.7052 24 16.9528 23.37 16.9528 22.2825C16.9528 17.2725 16.7698 16.8 17.7819 16.8C18.2503 16.8 19.0578 17.13 20.9421 19.6575C23.0955 22.6575 23.4508 24 24.6567 24H27.8276C28.7321 24 29.1897 23.37 28.9259 22.125C28.3229 19.5075 24.2476 14.1225 24.0645 13.7625C23.5962 12.9225 23.7307 12.5475 24.0645 11.7975C24.0699 11.79 27.9407 4.2 28.3391 1.6275Z" fill="#377DE5"/>
</svg>
