<svg width="45" height="55" viewBox="0 0 45 55" fill="none" xmlns="http://www.w3.org/2000/svg">
<path d="M37.3477 28.8643C37.3242 24.9219 39.2695 21.9463 43.207 19.7549C41.0039 16.8652 37.6758 15.2754 33.2812 14.9639C29.1211 14.6631 24.5742 17.1875 22.9102 17.1875C21.1523 17.1875 17.1211 15.0713 13.957 15.0713C7.41797 15.168 0.46875 19.8516 0.46875 29.3799C0.46875 32.1943 1.03125 35.1019 2.15625 38.1025C3.65625 42.0449 9.07031 51.7129 14.7187 51.5518C17.6719 51.4873 19.7578 49.6289 23.6016 49.6289C27.3281 49.6289 29.2617 51.5518 32.5547 51.5518C38.25 51.4766 43.1484 42.6894 44.5781 38.7363C36.9375 35.4385 37.3477 29.0684 37.3477 28.8643ZM30.7148 11.2256C33.9141 7.74512 33.6211 4.57617 33.5273 3.4375C30.7031 3.58789 27.4336 5.19922 25.5703 7.18652C23.5195 9.31348 22.3125 11.9453 22.5703 14.9102C25.6289 15.125 28.418 13.6855 30.7148 11.2256Z" fill="#464646"/>
</svg>
