<svg width="30" height="50" viewBox="0 0 30 50" fill="none" xmlns="http://www.w3.org/2000/svg">
<g clip-path="url(#clip0)">
<path d="M29.3955 38.3136L19.6487 49.2514C18.7595 50.2488 17.2416 50.2503 16.3512 49.2514L6.60351 38.3136C5.27169 36.8194 6.28701 34.375 8.25229 34.375H14.2499V7.8125H6.37719C6.22946 7.81251 6.08316 7.78221 5.94667 7.72331C5.81019 7.66441 5.68617 7.57808 5.58173 7.46924L0.331726 2.00049C-0.377024 1.2623 0.124914 0 1.12719 0H19.4999C20.7426 0 21.7499 1.04932 21.7499 2.34375V34.375H27.7468C29.7041 34.375 30.7328 36.8134 29.3955 38.3136Z" fill="#F0B110"/>
</g>
<defs>
<clipPath id="clip0">
<rect width="30" height="50" fill="white"/>
</clipPath>
</defs>
</svg>
